# xmcd
#
# Track frame offsets:
#	150
#	13899
#	30772
#	48470
#	64312
#	83266
#	102198
#	119533
#	134251
#	148943
#	166848
#	183961
#	201430
#	221192
#	238544
#	258818
#	276831
#	310929
#
# Disc length: 4160 seconds
#
# Revision: 1
# Processed by: cddbd v1.5.2PL0 Copyright (c) Steve Scherf et al.
# Submitted via: audiograbber 1.83.01
#
DISCID=00103e12
DTITLE=Chartbusters - Country 500 Vol.1 d.25 8532-25
DYEAR=1900
DGENRE=karaoke
TTITLE0=Trick Pony - Pour Me
TTITLE1=Steve Holy - Good Morning Beautiful
TTITLE2=Sara Evans - Born to Fly
TTITLE3=Steve Azar - I Don't Have to Be Me ('Til Monday)
TTITLE4=Lee Ann Womack - I Hope You Dance
TTITLE5=Travis Tritt - It's a Great Day to Be Alive
TTITLE6=Carolyn Dawn Johnson - Complicated
TTITLE7=Toby Keith - I Wanna Talk About Me
TTITLE8=Jamie O'Neal - When I think about angles
TTITLE9=Aaron Lines - You Can't Hide Beautiful
TTITLE10=Lee Ann Womack - Why they call it falling
TTITLE11=Blake Shelton - Ol' Red
TTITLE12=Martina McBride - Blessed
TTITLE13=Darryl Worley - I miss my friend
TTITLE14=Deborah Allen - Baby I Lied
TTITLE15=Keith Urban - Somebody like you
TTITLE16=Shania Twain - Forever and Always
TTITLE17=Data - Track 
EXTD=
EXTT0=
EXTT1=
EXTT2=
EXTT3=
EXTT4=
EXTT5=
EXTT6=
EXTT7=
EXTT8=
EXTT9=
EXTT10=
EXTT11=
EXTT12=
EXTT13=
EXTT14=
EXTT15=
EXTT16=
EXTT17=
PLAYORDER=
